<?xml version="1.0" encoding="UTF-8" standalone="no"?>
<!-- Generator: Adobe Illustrator 16.0.0, SVG Export Plug-In . SVG Version: 6.00 Build 0)  -->
<!DOCTYPE svg  PUBLIC '-//W3C//DTD SVG 1.1//EN'  'http://www.w3.org/Graphics/SVG/1.1/DTD/svg11.dtd'>
<svg id="svg2971" xmlns:rdf="http://www.w3.org/1999/02/22-rdf-syntax-ns#" xmlns="http://www.w3.org/2000/svg" enable-background="new 0 0 585.793 569.617" xml:space="preserve" viewBox="0 0 585.793 569.617" height="569.62px" width="585.79px" version="1.1" xmlns:xlink="http://www.w3.org/1999/xlink" y="0px" x="0px" xmlns:cc="http://web.resource.org/cc/" xmlns:dc="http://purl.org/dc/elements/1.1/">
<g id="layer1" transform="translate(-193.43 -307.55)">
	<g id="g3003">
		<path id="path2425" d="m685.5 576.86c-2.801 5.601-7.82 13.422-12.457 18.058h-371.59c-2.704-3.669-9.174-12.071-11.974-18.058h396.02m-27.72 36.99c-4.635 6.469-11.587 12.553-19.023 16.705h-304.38c-6.083-4.151-12.071-10.236-17.672-16.705h341.07m-42.1 34.27c-32.929 24.527-68.948 36.984-96.275 38.818 0-10.139 0-24.044 2.8-38.818h93.48m104.48-192.46c2.8 30.032-6.953 66.63-25.397 103.62h-136.93c5.021-8.787 11.588-17.092 18.926-25.494 39.79-46.65 100.91-75.42 143.4-78.13m-265.55 231.28c-26.363-1.834-62.479-14.291-95.697-38.818h94.346c1.83 14.77 1.83 28.68 1.35 38.82m32.83 2.8c-10.622-10.14-19.893-24.045-29.549-41.619h58.712c-9.27 17.57-19.41 31.48-29.16 41.62m-69.82-130.46h-137.41c-18.541-36.984-27.715-73.583-25.012-103.62 42.104 2.704 103.71 31.48 143.5 78.121 6.85 8.41 13.8 16.71 18.92 25.5m129.11 0h-118.49c-1.834-10.623-1.834-20.858-1.834-32.833 0-64.795 28.68-131.91 61.029-161.94 31.964 30.032 61.126 97.146 61.126 161.94-0.01 11.97-0.97 22.21-1.84 32.83"/>
		<path id="path2447" d="m710.02 713.31c5.602 0 10.141 4.636 10.141 10.719 0 5.505-4.539 10.14-10.141 10.14-5.601 0-10.139-4.635-10.139-10.14 0-6.08 4.54-10.72 10.14-10.72zm0 1.45c-5.117 0-8.787 4.152-8.787 9.271 0 4.636 3.67 8.787 8.787 8.787 4.636 0 8.788-4.151 8.788-8.787 0-5.12-4.15-9.27-8.79-9.27zm2.32 9.27c0.482 0 1.834 0.386 1.834 2.318v3.187h-1.834v-1.353c0-2.316-0.483-3.282-1.836-3.282h-2.316v4.635h-1.835v-11.588h3.669c2.317 0 4.152 1.448 4.152 3.283 0.02 1.35-0.95 2.8-1.82 2.8zm-4.15-4.15v3.187h1.834c0.87 0 2.317-0.482 2.317-1.352 0-0.965-0.965-1.835-1.835-1.835h-2.31"/>
		<path id="path2449" d="m685.01 820.21c19.409 0 35.633-7.821 35.633-27.231 0-11.105-7.822-18.54-20.377-21.824-12.939-3.186-29.548-2.703-29.548-11.104 0.869-5.505 5.987-6.952 13.809-6.952 12.07 0 12.554 6.471 13.036 10.718h19.894c-1.448-15.256-13.906-25.976-33.799-25.976-20.857 0-32.832 11.104-32.832 25.493 0 8.305 4.152 15.74 11.104 19.41 5.022 2.316 11.976 4.152 20.377 5.601 8.689 0.869 16.609 1.834 17.091 7.822 0 4.151-4.151 9.27-13.422 9.27-13.422 0-16.223-7.436-16.223-12.457h-20.762c0.39 16.12 13.81 27.23 36.02 27.23"/>
		<path id="path2451" d="m598.01 820.21c8.884 0 16.707-2.8 23.176-6.952v5.119h19.894v-79.57h-19.894v5.985c-6.469-4.635-14.291-6.951-23.176-6.951-22.596 0-41.619 18.058-41.619 41.233 0 22.69 19.02 41.13 41.62 41.13zm-22.12-41.14c0-12.554 10.622-23.176 23.078-23.176 12.072 0 22.211 10.621 22.211 23.176 0 11.975-10.139 22.693-22.211 22.693-12.45 0.01-23.08-10.71-23.08-22.69"/>
		<path id="path2453" d="m530.51 711.48v33.314c-6.952-4.635-14.774-6.951-23.562-6.951-22.693 0-41.233 18.058-41.233 41.233 0 22.693 18.541 41.137 41.233 41.137 8.787 0 17.092-2.8 23.562-6.952v5.118h19.41v-106.9h-19.41zm-45.77 67.59c0-12.554 10.621-23.176 22.595-23.176 12.555 0 23.177 10.621 23.177 23.176 0 11.975-10.622 22.693-23.177 22.693-11.98 0.01-22.6-10.71-22.6-22.69"/>
		<path id="path2455" d="m438 818.38h19.411v-79.57h-19.411v79.57zm0-87.01h19.411v-19.892h-19.411v19.89"/>
		<path id="path2457" d="m384.79 820.21c8.788 0 16.609-2.8 23.562-6.952v5.119h19.893v-106.9h-19.893v33.314c-6.953-4.635-14.775-6.951-23.562-6.951-22.693 0-41.619 18.058-41.619 41.233 0 22.7 18.93 41.14 41.62 41.14zm-22.69-41.14c0-12.554 10.623-23.176 23.562-23.176 12.07 0 22.693 10.621 22.693 23.176 0 11.975-10.623 22.693-22.693 22.693-12.94 0.01-23.56-10.71-23.56-22.69"/>
		<path id="path2459" d="m293.15 820.21c9.271 0 17.092-2.8 24.044-6.952v5.119h19.411v-79.57h-19.411v5.985c-6.952-4.635-15.256-6.951-24.044-6.951-22.693 0-41.138 18.058-41.138 41.233 0 22.69 18.45 41.13 41.14 41.13zm-22.21-41.14c0-12.554 10.621-23.176 22.692-23.176 12.941 0 23.562 10.621 23.562 23.176 0 11.975-10.621 22.693-23.562 22.693-12.07 0.01-22.69-10.71-22.69-22.69"/>
	</g>
</g>
</svg>
